<svg preserveAspectRatio="none" width="100%" height="100%" overflow="visible" style="display: block;" viewBox="0 0 15 15" fill="none" xmlns="http://www.w3.org/2000/svg">
<g id="Icon" clip-path="url(#clip0_0_53)">
<path id="Vector" d="M7.5 13.75C10.9518 13.75 13.75 10.9518 13.75 7.5C13.75 4.04822 10.9518 1.25 7.5 1.25C4.04822 1.25 1.25 4.04822 1.25 7.5C1.25 10.9518 4.04822 13.75 7.5 13.75Z" stroke="var(--stroke-0, #4BC0C0)" stroke-width="1.25" stroke-linecap="round" stroke-linejoin="round"/>
<path id="Vector_2" d="M5.68125 5.625C5.82819 5.20729 6.11822 4.85507 6.49997 4.63071C6.88172 4.40635 7.33056 4.32434 7.76699 4.3992C8.20341 4.47405 8.59926 4.70095 8.88442 5.03971C9.16959 5.37846 9.32566 5.8072 9.325 6.25C9.325 7.5 7.45 8.125 7.45 8.125" stroke="var(--stroke-0, #4BC0C0)" stroke-width="1.25" stroke-linecap="round" stroke-linejoin="round"/>
<path id="Vector_3" d="M7.5 10.625H7.50625" stroke="var(--stroke-0, #4BC0C0)" stroke-width="1.25" stroke-linecap="round" stroke-linejoin="round"/>
</g>
<defs>
<clipPath id="clip0_0_53">
<rect width="15" height="15" fill="white"/>
</clipPath>
</defs>
</svg>
