<svg preserveAspectRatio="none" width="100%" height="100%" overflow="visible" style="display: block;" viewBox="0 0 14 14" fill="none" xmlns="http://www.w3.org/2000/svg">
<g id="SVG">
<path id="Vector" d="M11.3733 4.66025L7 8.92325L2.62675 4.66025C2.54861 4.58393 2.44372 4.5412 2.3345 4.5412C2.22528 4.5412 2.12039 4.58393 2.04225 4.66025C2.00442 4.69732 1.97436 4.74156 1.95384 4.79039C1.93332 4.83922 1.92275 4.89166 1.92275 4.94463C1.92275 4.99759 1.93332 5.05003 1.95384 5.09886C1.97436 5.14769 2.00442 5.19193 2.04225 5.229L6.69463 9.765C6.77633 9.84464 6.88591 9.88921 7 9.88921C7.11409 9.88921 7.22367 9.84464 7.30538 9.765L11.9578 5.22988C11.9959 5.19278 12.0261 5.14842 12.0468 5.09943C12.0675 5.05044 12.0781 4.9978 12.0781 4.94463C12.0781 4.89145 12.0675 4.83881 12.0468 4.78982C12.0261 4.74083 11.9959 4.69647 11.9578 4.65938C11.8796 4.58306 11.7747 4.54033 11.6655 4.54033C11.5563 4.54033 11.4514 4.58306 11.3733 4.65938V4.66025Z" fill="var(--fill-0, #B4B4B4)"/>
</g>
</svg>
