<svg preserveAspectRatio="none" width="100%" height="100%" overflow="visible" style="display: block;" viewBox="0 0 15 15" fill="none" xmlns="http://www.w3.org/2000/svg">
<g id="Icon">
<path id="Vector" d="M7.20312 1.43438C7.23051 1.37904 7.27283 1.33246 7.32528 1.29989C7.37774 1.26732 7.43826 1.25007 7.5 1.25007C7.56174 1.25007 7.62226 1.26732 7.67472 1.29989C7.72717 1.33246 7.76949 1.37904 7.79688 1.43438L9.24062 4.35875C9.33574 4.55123 9.47613 4.71776 9.64977 4.84403C9.8234 4.97031 10.0251 5.05257 10.2375 5.08375L13.4663 5.55625C13.5274 5.56511 13.5849 5.59092 13.6322 5.63075C13.6795 5.67058 13.7146 5.72284 13.7338 5.78163C13.7529 5.84042 13.7552 5.90338 13.7404 5.9634C13.7256 6.02342 13.6943 6.07809 13.65 6.12125L11.315 8.395C11.161 8.54506 11.0458 8.7303 10.9793 8.93477C10.9127 9.13924 10.8969 9.35681 10.9331 9.56875L11.4844 12.7813C11.4952 12.8424 11.4886 12.9054 11.4653 12.9629C11.4421 13.0205 11.4031 13.0704 11.3528 13.1069C11.3026 13.1434 11.2431 13.165 11.1812 13.1693C11.1192 13.1736 11.0573 13.1604 11.0025 13.1312L8.11625 11.6138C7.92607 11.5139 7.71449 11.4617 7.49969 11.4617C7.28489 11.4617 7.0733 11.5139 6.88312 11.6138L3.9975 13.1312C3.94271 13.1603 3.88087 13.1733 3.81903 13.1689C3.75719 13.1645 3.69782 13.1429 3.64768 13.1064C3.59754 13.0699 3.55865 13.0201 3.53541 12.9626C3.51217 12.9052 3.50554 12.8423 3.51625 12.7813L4.06687 9.56938C4.10325 9.35733 4.08749 9.13962 4.02096 8.93503C3.95443 8.73043 3.83913 8.5451 3.685 8.395L1.35 6.12188C1.30537 6.07877 1.27375 6.024 1.25873 5.9638C1.24371 5.9036 1.2459 5.84039 1.26505 5.78137C1.2842 5.72235 1.31954 5.6699 1.36705 5.62999C1.41455 5.59008 1.47231 5.56431 1.53375 5.55563L4.76187 5.08375C4.97454 5.05281 5.17649 4.97066 5.35037 4.84437C5.52424 4.71807 5.66481 4.55142 5.76 4.35875L7.20312 1.43438Z" stroke="var(--stroke-0, #F9F7F5)" stroke-width="1.25" stroke-linecap="round" stroke-linejoin="round"/>
</g>
</svg>
