<svg preserveAspectRatio="none" width="100%" height="100%" overflow="visible" style="display: block;" viewBox="0 0 21.001 14.9988" fill="none" xmlns="http://www.w3.org/2000/svg">
<g id="Vector">
<path d="M0.562505 7.84738C0.479165 7.62287 0.479165 7.3759 0.562505 7.15138C1.37421 5.18324 2.75202 3.50042 4.52128 2.31628C6.29053 1.13214 8.37155 0.5 10.5005 0.5C12.6295 0.5 14.7105 1.13214 16.4797 2.31628C18.249 3.50042 19.6268 5.18324 20.4385 7.15138C20.5218 7.3759 20.5218 7.62287 20.4385 7.84738C19.6268 9.81553 18.249 11.4983 16.4797 12.6825C14.7105 13.8666 12.6295 14.4988 10.5005 14.4988C8.37155 14.4988 6.29053 13.8666 4.52128 12.6825C2.75202 11.4983 1.37421 9.81553 0.562505 7.84738Z" stroke="var(--stroke-0, white)" stroke-linecap="round" stroke-linejoin="round"/>
<path d="M10.5005 10.4993C12.1573 10.4993 13.5005 9.15612 13.5005 7.49927C13.5005 5.84241 12.1573 4.49927 10.5005 4.49927C8.84363 4.49927 7.50049 5.84241 7.50049 7.49927C7.50049 9.15612 8.84363 10.4993 10.5005 10.4993Z" stroke="var(--stroke-0, white)" stroke-linecap="round" stroke-linejoin="round"/>
</g>
</svg>
