<svg xmlns="http://www.w3.org/2000/svg" fill="none" viewBox="0 0 911 480"><path stroke="#272B32" d="M875.839 127.149c4.637 17.304-2.55 37.002-19.75 57.862-17.191 20.847-44.311 42.762-79.314 64.451-70.001 43.375-171.429 85.786-287.691 116.939-116.262 31.152-225.308 45.136-307.617 42.573-41.159-1.281-75.603-6.7-100.914-16.159-25.326-9.465-41.398-22.93-46.035-40.235-4.637-17.305 2.55-37.002 19.75-57.862 17.19-20.848 44.31-42.762 79.314-64.451 70.001-43.375 171.429-85.787 287.691-116.939C537.535 82.176 646.58 68.191 728.89 70.754c41.158 1.282 75.602 6.7 100.914 16.16 25.325 9.465 41.398 22.93 46.035 40.235Z"/><path stroke="#272B32" d="M34.518 127.149c-4.637 17.304 2.55 37.002 19.75 57.862 17.19 20.847 44.31 42.762 79.314 64.451 70.001 43.375 171.429 85.786 287.691 116.939 116.262 31.152 225.307 45.136 307.617 42.573 41.158-1.281 75.602-6.7 100.914-16.159 25.325-9.465 41.398-22.93 46.035-40.235 4.637-17.305-2.55-37.002-19.75-57.862-17.191-20.848-44.311-42.762-79.314-64.451-70.001-43.375-171.429-85.787-287.691-116.939-116.262-31.152-225.308-45.137-307.617-42.574-41.159 1.282-75.603 6.7-100.914 16.16-25.326 9.465-41.399 22.93-46.035 40.235Z"/></svg>