<svg width="114" height="118" viewBox="0 0 114 118" fill="none" xmlns="http://www.w3.org/2000/svg">
<path d="M101.901 11.7796C102.665 12.6189 103.409 13.5201 104.123 14.4874C112.152 25.3661 111.975 36.2448 111.792 47.5279C111.764 49.2244 111.737 50.9302 111.737 52.6464C111.737 52.7961 111.734 52.9405 111.73 53.0798V55.1222C111.73 55.1222 111.792 58.2121 111.792 60.3018C111.792 62.3914 111.73 65.7626 111.73 65.7626V84.1413C111.73 102.414 96.873 117.226 78.5455 117.226C70.3697 117.226 62.8846 114.275 57.1054 109.394C51.2841 114.277 43.7632 117.226 35.5521 117.226C17.0538 117.226 2.05786 102.276 2.05786 83.833V74.5776C2.05786 74.5776 2.0579 71.2838 2.0579 69.3018C2.0579 67.3197 2.05786 64.3609 2.05786 64.3609V52.3791C2.05786 43.6368 5.42744 35.6791 10.9424 29.7266C9.01611 27.7671 8.72476 24.6528 10.3886 22.3512C19.7487 9.40394 37.5999 6.17073 50.8833 14.7644C52.4678 12.6172 54.5861 10.3286 57.4117 7.92237C57.5969 7.76461 57.7834 7.61018 57.971 7.459C66.8239 -0.0970197 79.0855 -1.7622 89.4462 2.60242C92.6699 3.96047 95.7051 5.89934 98.3905 8.41376L98.6311 8.63907C99.5386 9.40191 100.435 10.2353 101.308 11.1456L101.321 11.1582C101.531 11.3547 101.724 11.5624 101.901 11.7796Z" fill="#5C2B71"/>
<path d="M51.9451 52.0708C51.9451 37.4242 63.8544 25.5508 78.5452 25.5508C93.236 25.5508 105.145 37.4242 105.145 52.0708V84.1414C105.145 98.788 93.236 110.661 78.5452 110.661C63.8544 110.661 51.9451 98.788 51.9451 84.1414V52.0708Z" fill="white"/>
<path fill-rule="evenodd" clip-rule="evenodd" d="M51.5464 84.9973C52.0259 99.3377 63.8372 110.816 78.3375 110.816C92.8379 110.816 104.649 99.3377 105.129 84.9973H51.5464Z" fill="#F8F4F9"/>
<path d="M100.965 84.9972C101.519 83.3284 101.826 81.4793 101.826 79.5335C101.826 72.127 97.3655 66.1228 91.8626 66.1228C86.3597 66.1228 81.8987 72.127 81.8987 79.5335C81.8987 81.4793 82.2066 83.3284 82.7604 84.9972H100.965Z" fill="#333333"/>
<ellipse cx="96.8454" cy="75.0634" rx="2.98917" ry="2.98016" fill="white"/>
<path d="M58.777 34.437L58.4677 34.0898L58.1602 34.4386C53.9796 39.1805 51.4441 45.4006 51.4441 52.2101V84.2808C51.4441 91.0903 53.9796 97.3104 58.1602 102.052L58.4677 102.401L58.777 102.054C63.0616 97.2445 65.6643 90.911 65.6643 83.9724V52.5185C65.6643 45.5799 63.0616 39.2464 58.777 34.437Z" fill="#333333"/>
<path d="M8.64258 52.3792C8.64258 37.5623 20.6903 25.5508 35.552 25.5508C50.4137 25.5508 62.4615 37.5622 62.4615 52.3791V83.833C62.4615 98.6499 50.4137 110.661 35.552 110.661C20.6903 110.661 8.64258 98.6499 8.64258 83.8331V52.3792Z" fill="#F8F4F9"/>
<path d="M9.39868 52.8218C9.39868 38.1752 21.308 26.3018 35.9988 26.3018C50.6897 26.3018 62.5989 38.1752 62.5989 52.8217V84.8924C62.5989 99.5389 50.6897 111.412 35.9988 111.412C21.308 111.412 9.39868 99.539 9.39868 84.8924V52.8218Z" fill="white"/>
<path fill-rule="evenodd" clip-rule="evenodd" d="M9 85.7483C9.47948 100.089 21.2908 111.567 35.7912 111.567C50.2915 111.567 62.1028 100.089 62.5823 85.7483H9Z" fill="#F8F4F9"/>
<path d="M58.4184 85.7481C58.9722 84.0793 59.2801 82.2303 59.2801 80.2845C59.2801 72.878 54.8191 66.8738 49.3162 66.8738C43.8133 66.8738 39.3523 72.878 39.3523 80.2845C39.3523 82.2303 39.6602 84.0793 40.214 85.7481H58.4184Z" fill="#333333"/>
<ellipse cx="54.299" cy="75.8144" rx="2.98917" ry="2.98016" fill="white"/>
</svg>
