<svg width="129" height="118" viewBox="0 0 129 118" fill="none" xmlns="http://www.w3.org/2000/svg">
<path fill-rule="evenodd" clip-rule="evenodd" d="M72.9845 7.21577C72.0519 3.362 68.5839 0.5 64.4482 0.5C60.3112 0.5 56.8424 3.36369 55.9111 7.21916C53.5698 5.66165 50.5262 5.24949 47.7232 6.38338C43.2999 8.17271 41.1169 13.148 42.7468 17.5998H28.7839C12.887 17.5998 0 30.5026 0 46.419V56.1718C0 72.0882 12.887 84.991 28.7839 84.991H41.215C41.4058 84.991 41.5605 85.1459 41.5605 85.337C41.5605 87.6961 42.2789 89.8872 43.5087 91.703V101.684C43.5087 107.044 47.4757 111.475 52.63 112.196C55.0347 115.415 58.8698 117.5 63.2012 117.5H65.7988C70.1302 117.5 73.9653 115.415 76.3701 112.196C81.5244 111.475 85.4913 107.044 85.4913 101.684V91.703C86.7211 89.8872 87.4395 87.6961 87.4395 85.337C87.4395 85.1459 87.5942 84.991 87.785 84.991H100.216C116.113 84.991 129 72.0882 129 56.1718V46.419C129 30.5026 116.113 17.5998 100.216 17.5998H86.1436C87.7735 13.148 85.5905 8.1727 81.1672 6.38338C78.3662 5.25031 75.325 5.66105 72.9845 7.21577Z" fill="#5C2B71"/>
<path d="M63.6689 9.29364C63.6689 8.86274 64.0178 8.51343 64.4482 8.51343C64.8786 8.51343 65.2275 8.86274 65.2275 9.29364V20.7368C65.2275 21.1677 64.8786 21.517 64.4482 21.517C64.0178 21.517 63.6689 21.1677 63.6689 20.7368V9.29364Z" fill="#333333"/>
<path d="M51.7782 14.2624C51.6103 13.8462 51.1371 13.6452 50.7215 13.8133C50.3058 13.9814 50.105 14.4551 50.2729 14.8713L52.7294 20.9588C52.8534 21.2659 53.1512 21.467 53.4821 21.467C54.0575 21.467 54.4502 20.8841 54.2347 20.3499L51.7782 14.2624Z" fill="#333333"/>
<path d="M78.6176 14.8713C78.7855 14.4551 78.5847 13.9814 78.1691 13.8133C77.7534 13.6452 77.2803 13.8462 77.1124 14.2624L74.6559 20.3499C74.4403 20.8841 74.833 21.467 75.4085 21.467C75.7394 21.467 76.0372 21.266 76.1611 20.9588L78.6176 14.8713Z" fill="#333333"/>
<path d="M120.996 46.419C120.996 34.9283 111.693 25.6133 100.216 25.6133H28.7839C17.3073 25.6133 8.00366 34.9283 8.00366 46.419V56.1718C8.00366 67.6625 17.3073 76.9775 28.7839 76.9775H41.215C45.8261 76.9775 49.5642 80.7202 49.5642 85.337C49.5642 87.1837 51.0594 88.6808 52.9039 88.6808H76.0961C77.9406 88.6808 79.4358 87.1837 79.4358 85.337C79.4358 80.7202 83.1739 76.9775 87.785 76.9775H100.216C111.693 76.9775 120.996 67.6625 120.996 56.1718V46.419Z" fill="#FFE8A3"/>
<path d="M51.5125 89.981C51.5125 89.2629 52.0939 88.6807 52.8112 88.6807H76.189C76.9063 88.6807 77.4878 89.2629 77.4878 89.981V101.684C77.4878 103.121 76.3248 104.285 74.8903 104.285H54.11C52.6754 104.285 51.5125 103.121 51.5125 101.684V89.981Z" fill="#4AB5BD"/>
<path d="M58.0061 104.285H70.9938C70.9938 107.158 68.6679 109.487 65.7987 109.487H63.2012C60.332 109.487 58.0061 107.158 58.0061 104.285Z" fill="#333333"/>
<rect x="49.5642" y="92.5818" width="29.8716" height="1.95054" rx="0.97527" fill="#333333"/>
<rect x="49.5642" y="98.4333" width="29.8716" height="1.95054" rx="0.97527" fill="#333333"/>
</svg>
